<?xml version="1.0" encoding="utf-8" standalone="no"?>
<!DOCTYPE svg PUBLIC "-//W3C//DTD SVG 1.1//EN"
  "http://www.w3.org/Graphics/SVG/1.1/DTD/svg11.dtd">
<svg xmlns:xlink="http://www.w3.org/1999/xlink" width="471.903099pt" height="260.64pt" viewBox="0 0 471.903099 260.64" xmlns="http://www.w3.org/2000/svg" version="1.1">
 <metadata>
  <rdf:RDF xmlns:dc="http://purl.org/dc/elements/1.1/" xmlns:cc="http://creativecommons.org/ns#" xmlns:rdf="http://www.w3.org/1999/02/22-rdf-syntax-ns#">
   <cc:Work>
    <dc:type rdf:resource="http://purl.org/dc/dcmitype/StillImage"/>
    <dc:date>2026-08-31T20:51:44.954740</dc:date>
    <dc:format>image/svg+xml</dc:format>
    <dc:creator>
     <cc:Agent>
      <dc:title>Matplotlib v3.11.1, https://matplotlib.org/</dc:title>
     </cc:Agent>
    </dc:creator>
   </cc:Work>
  </rdf:RDF>
 </metadata>
 <defs>
  <style type="text/css">*{stroke-linejoin: round; stroke-linecap: butt}</style>
 </defs>
 <g id="figure_1">
  <g id="patch_1">
   <path d="M 0 260.64
L 471.903099 260.64
L 471.903099 0
L 0 0
z
" style="fill: #ffffff"/>
  </g>
  <g id="axes_1">
   <g id="patch_2">
    <path d="M 65.444697 82.362081
L 105.620697 82.362081
Q 108.937982 82.362081 108.937982 80.384552
L 108.937982 55.335844
Q 108.937982 53.358315 105.620697 53.358315
L 65.444697 53.358315
Q 62.127413 53.358315 62.127413 55.335844
L 62.127413 80.384552
Q 62.127413 82.362081 65.444697 82.362081
z
" clip-path="url(#p74cc61ab61)" style="fill: #e9eef2; stroke: #6b7780; stroke-linejoin: miter"/>
   </g>
   <g id="patch_3">
    <path d="M 65.444697 125.208555
L 105.620697 125.208555
Q 108.937982 125.208555 108.937982 123.231025
L 108.937982 98.182318
Q 108.937982 96.204788 105.620697 96.204788
L 65.444697 96.204788
Q 62.127413 96.204788 62.127413 98.182318
L 62.127413 123.231025
Q 62.127413 125.208555 65.444697 125.208555
z
" clip-path="url(#p74cc61ab61)" style="fill: #e9eef2; stroke: #6b7780; stroke-linejoin: miter"/>
   </g>
   <g id="patch_4">
    <path d="M 126.261578 103.236004
L 170.12345 103.236004
Q 173.440734 103.236004 173.440734 101.258475
L 173.440734 70.71663
Q 173.440734 68.7391 170.12345 68.7391
L 126.261578 68.7391
Q 122.944294 68.7391 122.944294 70.71663
L 122.944294 101.258475
Q 122.944294 103.236004 126.261578 103.236004
z
" clip-path="url(#p74cc61ab61)" style="fill: #ddeaf5; stroke: #155fa0; stroke-linejoin: miter"/>
   </g>
   <g id="patch_5">
    <path d="M 188.921394 103.236004
L 236.469138 103.236004
Q 239.786422 103.236004 239.786422 101.258475
L 239.786422 70.71663
Q 239.786422 68.7391 236.469138 68.7391
L 188.921394 68.7391
Q 185.60411 68.7391 185.60411 70.71663
L 185.60411 101.258475
Q 185.60411 103.236004 188.921394 103.236004
z
" clip-path="url(#p74cc61ab61)" style="fill: #ddeaf5; stroke: #155fa0; stroke-linejoin: miter"/>
   </g>
   <g id="patch_6">
    <path d="M 108.307982 69.085828
Q 115.941129 75.00127 122.690551 80.231854
" clip-path="url(#p74cc61ab61)" style="fill: none; stroke: #155fa0; stroke-linecap: round"/>
    <path d="M 121.141272 77.006992
L 122.690551 80.231854
L 119.181094 79.53636
z
" clip-path="url(#p74cc61ab61)" style="fill: #155fa0; stroke: #155fa0; stroke-linecap: round"/>
   </g>
   <g id="patch_7">
    <path d="M 108.092013 109.241388
Q 115.941738 100.81838 123.029217 93.213286
" clip-path="url(#p74cc61ab61)" style="fill: none; stroke: #155fa0; stroke-linecap: round"/>
    <path d="M 119.677042 94.463455
L 123.029217 93.213286
L 122.018047 96.645127
z
" clip-path="url(#p74cc61ab61)" style="fill: #155fa0; stroke: #155fa0; stroke-linecap: round"/>
   </g>
   <g id="patch_8">
    <path d="M 173.225575 85.987552
Q 179.521456 85.987552 184.699302 85.987552
" clip-path="url(#p74cc61ab61)" style="fill: none; stroke: #155fa0; stroke-linecap: round"/>
    <path d="M 181.499302 84.387552
L 184.699302 85.987552
L 181.499302 87.587552
z
" clip-path="url(#p74cc61ab61)" style="fill: #155fa0; stroke: #155fa0; stroke-linecap: round"/>
   </g>
   <g id="text_1">
    <text style="font-weight: 700; font-size: 8px; font-family: 'Arial', 'DejaVu Sans', 'Liberation Sans', sans-serif; text-anchor: start" x="48.673982" y="33.802745" transform="rotate(-0 48.673982 33.802745)">a</text>
   </g>
   <g id="text_2">
    <text style="font-size: 6.5px; font-family: 'Arial', 'DejaVu Sans', 'Liberation Sans', sans-serif; fill: #263238" transform="translate(65.902189 66.074634)">Official shape</text>
    <text style="font-size: 6.5px; font-family: 'Arial', 'DejaVu Sans', 'Liberation Sans', sans-serif; fill: #263238" transform="translate(67.377893 73.655957)">+ run variant</text>
   </g>
   <g id="text_3">
    <text style="font-size: 6.5px; font-family: 'Arial', 'DejaVu Sans', 'Liberation Sans', sans-serif; fill: #263238" transform="translate(63.136135 108.88099)">GPU fingerprint</text>
    <text style="font-size: 6.5px; font-family: 'Arial', 'DejaVu Sans', 'Liberation Sans', sans-serif; fill: #263238" transform="translate(67.737932 116.502431)">+ incumbent</text>
   </g>
   <g id="text_4">
    <text style="font-size: 6.5px; font-family: 'Arial', 'DejaVu Sans', 'Liberation Sans', sans-serif; fill: #263238" transform="translate(131.932358 84.806285)">Conditional</text>
    <text style="font-size: 6.5px; font-family: 'Arial', 'DejaVu Sans', 'Liberation Sans', sans-serif; fill: #263238" transform="translate(126.517045 90.534601)">program space</text>
   </g>
   <g id="text_5">
    <text style="font-size: 6.5px; font-family: 'Arial', 'DejaVu Sans', 'Liberation Sans', sans-serif; fill: #263238" transform="translate(195.893782 80.654315)">ConfigSpec</text>
    <text style="font-size: 6.5px; font-family: 'Arial', 'DejaVu Sans', 'Liberation Sans', sans-serif; fill: #263238" transform="translate(191.921672 88.275755)">→ PlanBuilder</text>
    <text style="font-size: 6.5px; font-family: 'Arial', 'DejaVu Sans', 'Liberation Sans', sans-serif; fill: #263238" transform="translate(187.765735 95.290868)">→ ExecutionPlan</text>
   </g>
   <g id="text_6">
    <text style="font-size: 6.3px; font-family: 'Arial', 'DejaVu Sans', 'Liberation Sans', sans-serif; fill: #6b7780" transform="translate(115.507791 119.894863)">Reject illegal combinations</text>
    <text style="font-size: 6.3px; font-family: 'Arial', 'DejaVu Sans', 'Liberation Sans', sans-serif; fill: #6b7780" transform="translate(121.809267 126.751773)">before GPU execution</text>
   </g>
   <g id="text_7">
    <text style="font-weight: 700; font-size: 8px; font-family: 'Arial', 'DejaVu Sans', 'Liberation Sans', sans-serif; text-anchor: start" x="62.496" y="33" transform="rotate(-0 62.496 33)">Typed program construction</text>
   </g>
  </g>
  <g id="axes_2">
   <g id="patch_9">
    <path d="M 282.911119 79.066199
L 317.558312 79.066199
Q 320.875596 79.066199 320.875596 77.088669
L 320.875596 56.434472
Q 320.875596 54.456942 317.558312 54.456942
L 282.911119 54.456942
Q 279.593835 54.456942 279.593835 56.434472
L 279.593835 77.088669
Q 279.593835 79.066199 282.911119 79.066199
z
" clip-path="url(#pb2c3c9671c)" style="fill: #ddf1ed; stroke: #2a9d8f; stroke-linejoin: miter"/>
   </g>
   <g id="patch_10">
    <path d="M 334.513321 79.066199
L 369.160514 79.066199
Q 372.477798 79.066199 372.477798 77.088669
L 372.477798 56.434472
Q 372.477798 54.456942 369.160514 54.456942
L 334.513321 54.456942
Q 331.196037 54.456942 331.196037 56.434472
L 331.196037 77.088669
Q 331.196037 79.066199 334.513321 79.066199
z
" clip-path="url(#pb2c3c9671c)" style="fill: #ddf1ed; stroke: #2a9d8f; stroke-linejoin: miter"/>
   </g>
   <g id="patch_11">
    <path d="M 386.115523 79.066199
L 420.762716 79.066199
Q 424.08 79.066199 424.08 77.088669
L 424.08 56.434472
Q 424.08 54.456942 420.762716 54.456942
L 386.115523 54.456942
Q 382.798239 54.456942 382.798239 56.434472
L 382.798239 77.088669
Q 382.798239 79.066199 386.115523 79.066199
z
" clip-path="url(#pb2c3c9671c)" style="fill: #ddf1ed; stroke: #2a9d8f; stroke-linejoin: miter"/>
   </g>
   <g id="patch_12">
    <path d="M 320.661787 66.761571
Q 326.034242 66.761571 330.288663 66.761571
" clip-path="url(#pb2c3c9671c)" style="fill: none; stroke: #2a9d8f; stroke-linecap: round"/>
    <path d="M 327.088663 65.161571
L 330.288663 66.761571
L 327.088663 68.361571
z
" clip-path="url(#pb2c3c9671c)" style="fill: #2a9d8f; stroke: #2a9d8f; stroke-linecap: round"/>
   </g>
   <g id="patch_13">
    <path d="M 372.263989 66.761571
Q 377.636444 66.761571 381.890865 66.761571
" clip-path="url(#pb2c3c9671c)" style="fill: none; stroke: #2a9d8f; stroke-linecap: round"/>
    <path d="M 378.690865 65.161571
L 381.890865 66.761571
L 378.690865 68.361571
z
" clip-path="url(#pb2c3c9671c)" style="fill: #2a9d8f; stroke: #2a9d8f; stroke-linecap: round"/>
   </g>
   <g id="patch_14">
    <path d="M 442.140771 55.775295
L 460.570128 66.761571
L 442.140771 77.747846
L 423.711413 66.761571
z
" clip-path="url(#pb2c3c9671c)" style="fill: #f8e7d9; stroke: #e07a2d; stroke-linejoin: miter"/>
   </g>
   <g id="patch_15">
    <path d="M 421.868477 66.761571
Q 422.789945 66.761571 422.593379 66.761571
" clip-path="url(#pb2c3c9671c)" style="fill: none; stroke: #e07a2d; stroke-linecap: round"/>
    <path d="M 419.393379 65.161571
L 422.593379 66.761571
L 419.393379 68.361571
z
" clip-path="url(#pb2c3c9671c)" style="fill: #e07a2d; stroke: #e07a2d; stroke-linecap: round"/>
   </g>
   <g id="patch_16">
    <path d="M 303.183413 127.40581
L 359.945835 127.40581
Q 363.263119 127.40581 363.263119 125.42828
L 363.263119 102.576828
Q 363.263119 100.599298 359.945835 100.599298
L 303.183413 100.599298
Q 299.866128 100.599298 299.866128 102.576828
L 299.866128 125.42828
Q 299.866128 127.40581 303.183413 127.40581
z
" clip-path="url(#pb2c3c9671c)" style="fill: #e9eef2; stroke: #6b7780; stroke-linejoin: miter"/>
   </g>
   <g id="patch_17">
    <path d="M 382.429651 127.40581
L 439.192073 127.40581
Q 442.509358 127.40581 442.509358 125.42828
L 442.509358 102.576828
Q 442.509358 100.599298 439.192073 100.599298
L 382.429651 100.599298
Q 379.112367 100.599298 379.112367 102.576828
L 379.112367 125.42828
Q 379.112367 127.40581 382.429651 127.40581
z
" clip-path="url(#pb2c3c9671c)" style="fill: #e9eef2; stroke: #6b7780; stroke-linejoin: miter"/>
   </g>
   <g id="patch_18">
    <path d="M 330.316053 100.354602
Q 322.349596 90.381625 315.080931 81.282195
" clip-path="url(#pb2c3c9671c)" style="fill: none; stroke-dasharray: 3.7,1.6; stroke-dashoffset: 0; stroke: #6b7780; stroke-linecap: round"/>
    <path d="M 315.828013 84.781034
L 315.080931 81.282195
L 318.328251 82.783833
z
" clip-path="url(#pb2c3c9671c)" style="fill: #6b7780; stroke-dasharray: 3.7,1.6; stroke-dashoffset: 0; stroke: #6b7780; stroke-linecap: round"/>
   </g>
   <g id="patch_19">
    <path d="M 410.20165 100.011012
Q 407.124583 90.380785 404.387803 81.815549
" clip-path="url(#pb2c3c9671c)" style="fill: none; stroke-dasharray: 3.7,1.6; stroke-dashoffset: 0; stroke: #6b7780; stroke-linecap: round"/>
    <path d="M 403.837673 85.350709
L 404.387803 81.815549
L 406.885853 84.376749
z
" clip-path="url(#pb2c3c9671c)" style="fill: #6b7780; stroke-dasharray: 3.7,1.6; stroke-dashoffset: 0; stroke: #6b7780; stroke-linecap: round"/>
   </g>
   <g id="text_8">
    <text style="font-weight: 700; font-size: 8px; font-family: 'Arial', 'DejaVu Sans', 'Liberation Sans', sans-serif; text-anchor: start" x="266.140404" y="33.802745" transform="rotate(-0 266.140404 33.802745)">b</text>
   </g>
   <g id="text_9">
    <text style="font-size: 6.5px; font-family: 'Arial', 'DejaVu Sans', 'Liberation Sans', sans-serif; text-anchor: middle; fill: #263238" x="300.234716" y="69.08786" transform="rotate(-0 300.234716 69.08786)">Screen</text>
   </g>
   <g id="text_10">
    <text style="font-size: 6.5px; font-family: 'Arial', 'DejaVu Sans', 'Liberation Sans', sans-serif; text-anchor: middle; fill: #263238" x="351.836917" y="69.049774" transform="rotate(-0 351.836917 69.049774)">Enhanced</text>
   </g>
   <g id="text_11">
    <text style="font-size: 6.5px; font-family: 'Arial', 'DejaVu Sans', 'Liberation Sans', sans-serif; fill: #263238" transform="translate(393.328065 65.542218)">Formal</text>
    <text style="font-size: 6.5px; font-family: 'Arial', 'DejaVu Sans', 'Liberation Sans', sans-serif; fill: #263238" transform="translate(384.291033 71.949478)">paired blocks</text>
   </g>
   <g id="text_12">
    <text style="font-size: 6.2px; font-family: 'Arial', 'DejaVu Sans', 'Liberation Sans', sans-serif; text-anchor: middle; fill: #263238" x="442.140771" y="68.366063" transform="rotate(-0 442.140771 68.366063)">≥2%?</text>
   </g>
   <g id="text_13">
    <text style="font-size: 6.2px; font-family: 'Arial', 'DejaVu Sans', 'Liberation Sans', sans-serif; text-anchor: middle; fill: #e07a2d" x="442.140771" y="88.141298" transform="rotate(-0 442.140771 88.141298)">approved → deploy</text>
   </g>
   <g id="text_14">
    <text style="font-size: 6.5px; font-family: 'Arial', 'DejaVu Sans', 'Liberation Sans', sans-serif; fill: #263238" transform="translate(305.733725 112.176873)">Single-GPU lease</text>
    <text style="font-size: 6.5px; font-family: 'Arial', 'DejaVu Sans', 'Liberation Sans', sans-serif; fill: #263238" transform="translate(309.256929 119.230071)">+ fresh process</text>
   </g>
   <g id="text_15">
    <text style="font-size: 6.5px; font-family: 'Arial', 'DejaVu Sans', 'Liberation Sans', sans-serif; fill: #263238" transform="translate(387.417464 112.137264)">Accuracy + path</text>
    <text style="font-size: 6.5px; font-family: 'Arial', 'DejaVu Sans', 'Liberation Sans', sans-serif; fill: #263238" transform="translate(382.272816 119.152376)">+ latency + memory</text>
   </g>
   <g id="text_16">
    <text style="font-weight: 700; font-size: 8px; font-family: 'Arial', 'DejaVu Sans', 'Liberation Sans', sans-serif; text-anchor: start" x="279.962422" y="33" transform="rotate(-0 279.962422 33)">Evidence-efficient search and promotion</text>
   </g>
  </g>
  <g id="axes_3">
   <g id="patch_20">
    <path d="M 68.92416 227.063533
L 136.41984 227.063533
Q 143.65152 227.063533 143.65152 225.378971
L 143.65152 198.425976
Q 143.65152 196.741414 136.41984 196.741414
L 68.92416 196.741414
Q 61.69248 196.741414 61.69248 198.425976
L 61.69248 225.378971
Q 61.69248 227.063533 68.92416 227.063533
z
" clip-path="url(#p675c2e8cd4)" style="fill: #f8e7d9; stroke: #e07a2d; stroke-linejoin: miter"/>
   </g>
   <g id="patch_21">
    <path d="M 173.38176 227.063533
L 248.91264 227.063533
Q 256.14432 227.063533 256.14432 225.378971
L 256.14432 198.425976
Q 256.14432 196.741414 248.91264 196.741414
L 173.38176 196.741414
Q 166.15008 196.741414 166.15008 198.425976
L 166.15008 225.378971
Q 166.15008 227.063533 173.38176 227.063533
z
" clip-path="url(#p675c2e8cd4)" style="fill: #f8e7d9; stroke: #e07a2d; stroke-linejoin: miter"/>
   </g>
   <g id="patch_22">
    <path d="M 140.82743 211.902473
Q 154.900287 211.902473 167.855111 211.902473
" clip-path="url(#p675c2e8cd4)" style="fill: none; stroke: #e07a2d; stroke-linecap: round"/>
    <path d="M 164.655111 210.302473
L 167.855111 211.902473
L 164.655111 213.502473
z
" clip-path="url(#p675c2e8cd4)" style="fill: #e07a2d; stroke: #e07a2d; stroke-linecap: round"/>
   </g>
   <g id="patch_23">
    <path d="M 209.693934 195.552143
Q 156.909663 146.236995 104.860657 194.865085
" clip-path="url(#p675c2e8cd4)" style="fill: none; stroke-dasharray: 3.33,1.44; stroke-dashoffset: 0; stroke: #e07a2d; stroke-width: 0.9; stroke-linecap: round"/>
    <path d="M 108.291233 193.849629
L 104.860657 194.865085
L 106.106638 191.511351
z
" clip-path="url(#p675c2e8cd4)" style="fill: #e07a2d; stroke-dasharray: 3.33,1.44; stroke-dashoffset: 0; stroke: #e07a2d; stroke-width: 0.9; stroke-linecap: round"/>
   </g>
   <g id="patch_24">
    <path d="M 289.89216 204.602704
L 365.42304 204.602704
Q 372.65472 204.602704 372.65472 202.918142
L 372.65472 180.644486
Q 372.65472 178.959924 365.42304 178.959924
L 289.89216 178.959924
Q 282.66048 178.959924 282.66048 180.644486
L 282.66048 202.918142
Q 282.66048 204.602704 289.89216 204.602704
z
" clip-path="url(#p675c2e8cd4)" style="fill: #ddf1ed; stroke: #2a9d8f; stroke-linejoin: miter"/>
   </g>
   <g id="patch_25">
    <path d="M 289.89216 245.780891
L 365.42304 245.780891
Q 372.65472 245.780891 372.65472 244.096329
L 372.65472 221.822673
Q 372.65472 220.138111 365.42304 220.138111
L 289.89216 220.138111
Q 282.66048 220.138111 282.66048 221.822673
L 282.66048 244.096329
Q 282.66048 245.780891 289.89216 245.780891
z
" clip-path="url(#p675c2e8cd4)" style="fill: #f8e7d9; stroke: #e07a2d; stroke-linejoin: miter"/>
   </g>
   <g id="patch_26">
    <path d="M 253.082126 210.946442
Q 269.40214 202.076002 284.739844 193.739478
" clip-path="url(#p675c2e8cd4)" style="fill: none; stroke: #2a9d8f; stroke-linecap: round"/>
    <path d="M 281.164229 193.861868
L 284.739844 193.739478
L 282.692387 196.673404
z
" clip-path="url(#p675c2e8cd4)" style="fill: #2a9d8f; stroke: #2a9d8f; stroke-linecap: round"/>
   </g>
   <g id="patch_27">
    <path d="M 253.042401 212.925908
Q 269.402282 222.664884 284.801468 231.831962
" clip-path="url(#p675c2e8cd4)" style="fill: none; stroke: #e07a2d; stroke-linecap: round"/>
    <path d="M 282.870235 228.820262
L 284.801468 231.831962
L 281.233368 231.569929
z
" clip-path="url(#p675c2e8cd4)" style="fill: #e07a2d; stroke: #e07a2d; stroke-linecap: round"/>
   </g>
   <g id="patch_28">
    <path d="M 398.36736 227.063533
L 457.82784 227.063533
Q 465.05952 227.063533 465.05952 225.378971
L 465.05952 198.425976
Q 465.05952 196.741414 457.82784 196.741414
L 398.36736 196.741414
Q 391.13568 196.741414 391.13568 198.425976
L 391.13568 225.378971
Q 391.13568 227.063533 398.36736 227.063533
z
" clip-path="url(#p675c2e8cd4)" style="fill: #e9eef2; stroke: #6b7780; stroke-linejoin: miter"/>
   </g>
   <g id="patch_29">
    <path d="M 369.574135 193.233897
Q 381.894311 200.203622 393.241377 206.622843
" clip-path="url(#p675c2e8cd4)" style="fill: none; stroke: #2a9d8f; stroke-linecap: round"/>
    <path d="M 391.24399 203.654604
L 393.241377 206.622843
L 389.668353 206.439809
z
" clip-path="url(#p675c2e8cd4)" style="fill: #2a9d8f; stroke: #2a9d8f; stroke-linecap: round"/>
   </g>
   <g id="patch_30">
    <path d="M 369.526073 232.357333
Q 381.897731 224.53509 393.324399 217.310336
" clip-path="url(#p675c2e8cd4)" style="fill: none; stroke: #e07a2d; stroke-linecap: round"/>
    <path d="M 389.764622 217.668093
L 393.324399 217.310336
L 391.474738 220.372811
z
" clip-path="url(#p675c2e8cd4)" style="fill: #e07a2d; stroke: #e07a2d; stroke-linecap: round"/>
   </g>
   <g id="text_17">
    <text style="font-weight: 700; font-size: 8px; font-family: 'Arial', 'DejaVu Sans', 'Liberation Sans', sans-serif; text-anchor: start" x="32.364" y="162.301475" transform="rotate(-0 32.364 162.301475)">c</text>
   </g>
   <g id="text_18">
    <text style="font-size: 6.5px; font-family: 'Arial', 'DejaVu Sans', 'Liberation Sans', sans-serif; text-anchor: middle; fill: #263238" x="102.672" y="214.190677" transform="rotate(-0 102.672 214.190677)">Formal winner</text>
   </g>
   <g id="text_19">
    <text style="font-size: 6.5px; font-family: 'Arial', 'DejaVu Sans', 'Liberation Sans', sans-serif; fill: #263238" transform="translate(182.249622 210.037183)">Deployment registry</text>
    <text style="font-size: 6.5px; font-family: 'Arial', 'DejaVu Sans', 'Liberation Sans', sans-serif; fill: #263238" transform="translate(182.875755 217.12999)">exact GPU + shape</text>
   </g>
   <g id="text_20">
    <text style="font-size: 6.2px; font-family: 'Arial', 'DejaVu Sans', 'Liberation Sans', sans-serif; text-anchor: middle; fill: #e07a2d" x="156.9096" y="180.751529" transform="rotate(-0 156.9096 180.751529)">incumbent for next cycle</text>
   </g>
   <g id="text_21">
    <text style="font-size: 6.5px; font-family: 'Arial', 'DejaVu Sans', 'Liberation Sans', sans-serif; fill: #263238" transform="translate(306.696116 189.993719)">Shapes 01–13</text>
    <text style="font-size: 6.5px; font-family: 'Arial', 'DejaVu Sans', 'Liberation Sans', sans-serif; fill: #263238" transform="translate(304.357131 197.577073)">resident runtime</text>
   </g>
   <g id="text_22">
    <text style="font-size: 6.5px; font-family: 'Arial', 'DejaVu Sans', 'Liberation Sans', sans-serif; fill: #263238" transform="translate(313.74303 231.171906)">Shape 14</text>
    <text style="font-size: 6.5px; font-family: 'Arial', 'DejaVu Sans', 'Liberation Sans', sans-serif; fill: #263238" transform="translate(302.372092 238.75526)">streamed runtime</text>
   </g>
   <g id="text_23">
    <text style="font-size: 6.5px; font-family: 'Arial', 'DejaVu Sans', 'Liberation Sans', sans-serif; fill: #263238" transform="translate(401.426272 210.116909)">Official-compatible</text>
    <text style="font-size: 6.5px; font-family: 'Arial', 'DejaVu Sans', 'Liberation Sans', sans-serif; fill: #263238" transform="translate(400.584319 217.12999)">Transformer output</text>
   </g>
   <g id="text_24">
    <text style="font-size: 6.2px; font-family: 'Arial', 'DejaVu Sans', 'Liberation Sans', sans-serif; text-anchor: middle; fill: #6b7780" x="199.0944" y="250.941681" transform="rotate(-0 199.0944 250.941681)">Resident TPE and Shape-14 finite search retain separate evidence stores</text>
   </g>
   <g id="text_25">
    <text style="font-weight: 700; font-size: 8px; font-family: 'Arial', 'DejaVu Sans', 'Liberation Sans', sans-serif; text-anchor: start" x="62.496" y="161.173211" transform="rotate(-0 62.496 161.173211)">Exact-device deployment closes the loop</text>
   </g>
  </g>
  <g id="text_26">
   <text style="font-weight: 700; font-size: 10px; font-family: 'Arial', 'DejaVu Sans', 'Liberation Sans', sans-serif; text-anchor: start; fill: #263238" x="2.88" y="10.160273" transform="rotate(-0 2.88 10.160273)">Closed-loop shape-specialized Transformer optimization</text>
  </g>
 </g>
 <defs>
  <clipPath id="p74cc61ab61">
   <rect x="62.496" y="36" width="184.293578" height="109.862752"/>
  </clipPath>
  <clipPath id="pb2c3c9671c">
   <rect x="279.962422" y="36" width="184.293578" height="109.862752"/>
  </clipPath>
  <clipPath id="p675c2e8cd4">
   <rect x="62.496" y="164.173211" width="401.76" height="93.586789"/>
  </clipPath>
 </defs>
</svg>
