<?xml version="1.0" encoding="UTF-8" standalone="no"?>
<!DOCTYPE svg PUBLIC "-//W3C//DTD SVG 1.1//EN"
 "http://www.w3.org/Graphics/SVG/1.1/DTD/svg11.dtd">
<!-- Generated by graphviz version 16.0.0 (20260814.1018)
 -->
<!-- Title: Shape14Streaming Pages: 1 -->
<svg width="771pt" height="148pt"
 viewBox="0.00 0.00 771.00 148.00" xmlns="http://www.w3.org/2000/svg" xmlns:xlink="http://www.w3.org/1999/xlink">
<g id="graph0" class="graph" transform="scale(1 1) rotate(0) translate(15.84 131.68)">
<title>Shape14Streaming</title>
<polygon fill="#ffffff" stroke="none" points="-15.84,15.84 -15.84,-131.68 755.19,-131.68 755.19,15.84 -15.84,15.84"/>
<!-- dense_lane&#45;&gt;stream_lane -->
<!-- dense_lane&#45;&gt;dense_scores -->
<g id="edge1" class="edge">
<title>dense_lane&#45;&gt;dense_scores</title>
<path fill="none" stroke="#d9772b" stroke-width="1.45" d="M93.41,-90.71C93.41,-90.71 122.98,-90.71 122.98,-90.71"/>
<polygon fill="#d9772b" stroke="#d9772b" stroke-width="1.45" points="122.98,-93.23 130.18,-90.71 122.98,-88.19 122.98,-93.23"/>
</g>
<!-- stream_lane&#45;&gt;stream_batch -->
<g id="edge5" class="edge">
<title>stream_lane&#45;&gt;stream_batch</title>
<path fill="none" stroke="#1f8a78" stroke-width="1.45" d="M89.02,-24.42C89.02,-24.42 122.95,-24.42 122.95,-24.42"/>
<polygon fill="#1f8a78" stroke="#1f8a78" stroke-width="1.45" points="122.95,-26.94 130.15,-24.42 122.95,-21.9 122.95,-26.94"/>
</g>
<!-- dense_scores&#45;&gt;dense_softmax -->
<g id="edge2" class="edge">
<title>dense_scores&#45;&gt;dense_softmax</title>
<path fill="none" stroke="#d9772b" stroke-width="1.45" d="M255.43,-94.42C255.43,-94.42 284.38,-94.42 284.38,-94.42"/>
<polygon fill="#d9772b" stroke="#d9772b" stroke-width="1.45" points="284.38,-96.94 291.58,-94.42 284.38,-91.9 284.38,-96.94"/>
</g>
<!-- dense_scores&#45;&gt;stream_batch -->
<!-- dense_softmax&#45;&gt;dense_second -->
<g id="edge3" class="edge">
<title>dense_softmax&#45;&gt;dense_second</title>
<path fill="none" stroke="#d9772b" stroke-width="1.45" d="M416.83,-94.42C416.83,-94.42 445.78,-94.42 445.78,-94.42"/>
<polygon fill="#d9772b" stroke="#d9772b" stroke-width="1.45" points="445.78,-96.94 452.98,-94.42 445.78,-91.9 445.78,-96.94"/>
</g>
<!-- dense_softmax&#45;&gt;stream_tiles -->
<!-- dense_second&#45;&gt;dense_conclusion -->
<g id="edge4" class="edge">
<title>dense_second&#45;&gt;dense_conclusion</title>
<path fill="none" stroke="#d9772b" stroke-width="1.45" d="M578.23,-94.42C578.23,-94.42 606.91,-94.42 606.91,-94.42"/>
<polygon fill="#d9772b" stroke="#d9772b" stroke-width="1.45" points="606.91,-96.94 614.11,-94.42 606.91,-91.9 606.91,-96.94"/>
</g>
<!-- dense_second&#45;&gt;stream_emit -->
<!-- dense_conclusion&#45;&gt;stream_conclusion -->
<!-- stream_batch&#45;&gt;stream_tiles -->
<g id="edge6" class="edge">
<title>stream_batch&#45;&gt;stream_tiles</title>
<path fill="none" stroke="#1f8a78" stroke-width="1.45" d="M255.43,-21.42C255.43,-21.42 284.38,-21.42 284.38,-21.42"/>
<polygon fill="#1f8a78" stroke="#1f8a78" stroke-width="1.45" points="284.38,-23.94 291.58,-21.42 284.38,-18.9 284.38,-23.94"/>
</g>
<!-- stream_tiles&#45;&gt;stream_emit -->
<g id="edge7" class="edge">
<title>stream_tiles&#45;&gt;stream_emit</title>
<path fill="none" stroke="#1f8a78" stroke-width="1.45" d="M416.83,-21.42C416.83,-21.42 445.78,-21.42 445.78,-21.42"/>
<polygon fill="#1f8a78" stroke="#1f8a78" stroke-width="1.45" points="445.78,-23.94 452.98,-21.42 445.78,-18.9 445.78,-23.94"/>
</g>
<!-- stream_emit&#45;&gt;stream_conclusion -->
<g id="edge8" class="edge">
<title>stream_emit&#45;&gt;stream_conclusion</title>
<path fill="none" stroke="#1f8a78" stroke-width="1.45" d="M578.23,-21.42C578.23,-21.42 606.91,-21.42 606.91,-21.42"/>
<polygon fill="#1f8a78" stroke="#1f8a78" stroke-width="1.45" points="606.91,-23.94 614.11,-21.42 606.91,-18.9 606.91,-23.94"/>
</g>
<!-- dense_lane -->
<g id="node1" class="node">
<title>dense_lane</title>
<path fill="#f4f6f8" stroke="none" stroke-width="1.25" d="M81.75,-108.42C81.75,-108.42 12,-108.42 12,-108.42 6,-108.42 0,-102.42 0,-96.42 0,-96.42 0,-84.42 0,-84.42 0,-78.42 6,-72.42 12,-72.42 12,-72.42 81.75,-72.42 81.75,-72.42 87.75,-72.42 93.75,-78.42 93.75,-84.42 93.75,-84.42 93.75,-96.42 93.75,-96.42 93.75,-102.42 87.75,-108.42 81.75,-108.42"/>
<text xml:space="preserve" text-anchor="start" x="17.25" y="-90.97" font-family="Arial" font-weight="bold" font-size="11.00" fill="#d9772b">Dense path</text>
<text xml:space="preserve" text-anchor="start" x="0" y="-81.87" font-family="Arial" font-size="9.00" fill="#d9772b">MEMORY&#45;INFEASIBLE</text>
</g>
<!-- stream_lane -->
<g id="node2" class="node">
<title>stream_lane</title>
<path fill="#f4f6f8" stroke="none" stroke-width="1.25" d="M77.25,-42.42C77.25,-42.42 16.5,-42.42 16.5,-42.42 10.5,-42.42 4.5,-36.42 4.5,-30.42 4.5,-30.42 4.5,-18.42 4.5,-18.42 4.5,-12.42 10.5,-6.42 16.5,-6.42 16.5,-6.42 77.25,-6.42 77.25,-6.42 83.25,-6.42 89.25,-12.42 89.25,-18.42 89.25,-18.42 89.25,-30.42 89.25,-30.42 89.25,-36.42 83.25,-42.42 77.25,-42.42"/>
<text xml:space="preserve" text-anchor="start" x="8.62" y="-24.97" font-family="Arial" font-weight="bold" font-size="11.00" fill="#1f8a78">Streamed path</text>
<text xml:space="preserve" text-anchor="start" x="4.5" y="-15.87" font-family="Arial" font-size="9.00" fill="#1f8a78">MEMORY&#45;FEASIBLE</text>
</g>
<!-- dense_scores -->
<g id="node3" class="node">
<title>dense_scores</title>
<path fill="#fbeee4" stroke="#d9772b" stroke-width="1.25" d="M243.15,-115.84C243.15,-115.84 144.75,-115.84 144.75,-115.84 138.75,-115.84 132.75,-109.84 132.75,-103.84 132.75,-103.84 132.75,-85 132.75,-85 132.75,-79 138.75,-73 144.75,-73 144.75,-73 243.15,-73 243.15,-73 249.15,-73 255.15,-79 255.15,-85 255.15,-85 255.15,-103.84 255.15,-103.84 255.15,-109.84 249.15,-115.84 243.15,-115.84"/>
<text xml:space="preserve" text-anchor="middle" x="193.95" y="-97.47" font-family="Arial" font-size="11.00" fill="#24313a">Full score tensor</text>
<text xml:space="preserve" text-anchor="middle" x="193.95" y="-83.97" font-family="Arial" font-size="11.00" fill="#24313a">[B, H, S, S]</text>
</g>
<!-- dense_softmax -->
<g id="node4" class="node">
<title>dense_softmax</title>
<path fill="#fbeee4" stroke="#d9772b" stroke-width="1.25" d="M404.55,-115.84C404.55,-115.84 306.15,-115.84 306.15,-115.84 300.15,-115.84 294.15,-109.84 294.15,-103.84 294.15,-103.84 294.15,-85 294.15,-85 294.15,-79 300.15,-73 306.15,-73 306.15,-73 404.55,-73 404.55,-73 410.55,-73 416.55,-79 416.55,-85 416.55,-85 416.55,-103.84 416.55,-103.84 416.55,-109.84 410.55,-115.84 404.55,-115.84"/>
<text xml:space="preserve" text-anchor="middle" x="355.35" y="-97.47" font-family="Arial" font-size="11.00" fill="#24313a">Global softmax</text>
<text xml:space="preserve" text-anchor="middle" x="355.35" y="-83.97" font-family="Arial" font-size="11.00" fill="#24313a">+ probabilities</text>
</g>
<!-- dense_second -->
<g id="node5" class="node">
<title>dense_second</title>
<path fill="#fbeee4" stroke="#d9772b" stroke-width="1.25" d="M565.95,-115.84C565.95,-115.84 467.55,-115.84 467.55,-115.84 461.55,-115.84 455.55,-109.84 455.55,-103.84 455.55,-103.84 455.55,-85 455.55,-85 455.55,-79 461.55,-73 467.55,-73 467.55,-73 565.95,-73 565.95,-73 571.95,-73 577.95,-79 577.95,-85 577.95,-85 577.95,-103.84 577.95,-103.84 577.95,-109.84 571.95,-115.84 565.95,-115.84"/>
<text xml:space="preserve" text-anchor="middle" x="516.75" y="-97.47" font-family="Arial" font-size="11.00" fill="#24313a">Second S × S</text>
<text xml:space="preserve" text-anchor="middle" x="516.75" y="-83.97" font-family="Arial" font-size="11.00" fill="#24313a">materialization</text>
</g>
<!-- dense_conclusion -->
<g id="node6" class="node">
<title>dense_conclusion</title>
<path fill="#ffffff" stroke="#d9772b" stroke-width="1.65" d="M727.35,-115.84C727.35,-115.84 628.95,-115.84 628.95,-115.84 622.95,-115.84 616.95,-109.84 616.95,-103.84 616.95,-103.84 616.95,-85 616.95,-85 616.95,-79 622.95,-73 628.95,-73 628.95,-73 727.35,-73 727.35,-73 733.35,-73 739.35,-79 739.35,-85 739.35,-85 739.35,-103.84 739.35,-103.84 739.35,-109.84 733.35,-115.84 727.35,-115.84"/>
<text xml:space="preserve" text-anchor="middle" x="678.15" y="-97.47" font-family="Arial" font-size="11.00" fill="#24313a">Does not fit</text>
<text xml:space="preserve" text-anchor="middle" x="678.15" y="-83.97" font-family="Arial" font-size="11.00" fill="#24313a">16 GB&#45;class GPU</text>
</g>
<!-- stream_batch -->
<g id="node7" class="node">
<title>stream_batch</title>
<path fill="#e8f5f2" stroke="#1f8a78" stroke-width="1.25" d="M243.15,-42.84C243.15,-42.84 144.75,-42.84 144.75,-42.84 138.75,-42.84 132.75,-36.84 132.75,-30.84 132.75,-30.84 132.75,-12 132.75,-12 132.75,-6 138.75,0 144.75,0 144.75,0 243.15,0 243.15,0 249.15,0 255.15,-6 255.15,-12 255.15,-12 255.15,-30.84 255.15,-30.84 255.15,-36.84 249.15,-42.84 243.15,-42.84"/>
<text xml:space="preserve" text-anchor="middle" x="193.95" y="-24.47" font-family="Arial" font-size="11.00" fill="#24313a">B=2 microbatch</text>
<text xml:space="preserve" text-anchor="middle" x="193.95" y="-10.97" font-family="Arial" font-size="11.00" fill="#24313a">16 ordered chunks</text>
</g>
<!-- stream_tiles -->
<g id="node8" class="node">
<title>stream_tiles</title>
<path fill="#e8f5f2" stroke="#1f8a78" stroke-width="1.25" d="M404.55,-42.84C404.55,-42.84 306.15,-42.84 306.15,-42.84 300.15,-42.84 294.15,-36.84 294.15,-30.84 294.15,-30.84 294.15,-12 294.15,-12 294.15,-6 300.15,0 306.15,0 306.15,0 404.55,0 404.55,0 410.55,0 416.55,-6 416.55,-12 416.55,-12 416.55,-30.84 416.55,-30.84 416.55,-36.84 410.55,-42.84 404.55,-42.84"/>
<text xml:space="preserve" text-anchor="middle" x="355.35" y="-24.47" font-family="Arial" font-size="11.00" fill="#24313a">64 × 64 Q/KV tiles</text>
<text xml:space="preserve" text-anchor="middle" x="355.35" y="-10.97" font-family="Arial" font-size="11.00" fill="#24313a">online max + sum</text>
</g>
<!-- stream_emit -->
<g id="node9" class="node">
<title>stream_emit</title>
<path fill="#e8f5f2" stroke="#1f8a78" stroke-width="1.25" d="M565.95,-42.84C565.95,-42.84 467.55,-42.84 467.55,-42.84 461.55,-42.84 455.55,-36.84 455.55,-30.84 455.55,-30.84 455.55,-12 455.55,-12 455.55,-6 461.55,0 467.55,0 467.55,0 565.95,0 565.95,0 571.95,0 577.95,-6 577.95,-12 577.95,-12 577.95,-30.84 577.95,-30.84 577.95,-36.84 571.95,-42.84 565.95,-42.84"/>
<text xml:space="preserve" text-anchor="middle" x="516.75" y="-24.47" font-family="Arial" font-size="11.00" fill="#24313a">Emit [B, S, D]</text>
<text xml:space="preserve" text-anchor="middle" x="516.75" y="-10.97" font-family="Arial" font-size="11.00" fill="#24313a">discard score tiles</text>
</g>
<!-- stream_conclusion -->
<g id="node10" class="node">
<title>stream_conclusion</title>
<path fill="#ffffff" stroke="#1f8a78" stroke-width="1.65" d="M727.35,-42.84C727.35,-42.84 628.95,-42.84 628.95,-42.84 622.95,-42.84 616.95,-36.84 616.95,-30.84 616.95,-30.84 616.95,-12 616.95,-12 616.95,-6 622.95,0 628.95,0 628.95,0 727.35,0 727.35,0 733.35,0 739.35,-6 739.35,-12 739.35,-12 739.35,-30.84 739.35,-30.84 739.35,-36.84 733.35,-42.84 727.35,-42.84"/>
<text xml:space="preserve" text-anchor="middle" x="678.15" y="-24.47" font-family="Arial" font-size="11.00" fill="#24313a">6.56 GiB peak</text>
<text xml:space="preserve" text-anchor="middle" x="678.15" y="-10.97" font-family="Arial" font-size="11.00" fill="#24313a">no global S × S</text>
</g>
</g>
</svg>
